Coordinates
version=1
nRows=15
nColumns=23
inDegrees=yes

Units are S.I. units (second, meters, Newtons, ...)
If the header above contains a line with 'inDegrees', this indicates whether rotational values are in degrees (yes) or radians (no).

endheader
time	pelvis_tilt	pelvis_list	pelvis_rotation	pelvis_tx	pelvis_ty	pelvis_tz	hip_flexion_r	hip_adduction_r	hip_rotation_r	knee_angle_r	knee_angle_r_beta	ankle_angle_r	subtalar_angle_r	mtp_angle_r	hip_flexion_l	hip_adduction_l	hip_rotation_l	knee_angle_l	knee_angle_l_beta	ankle_angle_l	subtalar_angle_l	mtp_angle_l
      7.50000000	    -11.26271348	     -4.98793895	     -6.33240178	      2.23613718	      0.91966392	      0.99941794	      6.43623236	      7.26829262	     -1.02919193	     27.79104626	      0.48504526	     24.08515527	      3.49816855	      0.00000000	     37.96230776	     -8.47143044	     -2.16604826	    105.12493492	      1.83477624	      3.30809526	    -14.98651361	      0.00000000
      7.50666667	    -11.74496976	     -3.57640386	     -5.25165536	      2.23734115	      0.92291258	      0.99787596	      3.80983349	      5.43091742	     -2.08398302	     24.79608491	      0.43277332	     21.00323251	      3.76056226	      0.00000000	     40.57069394	     -5.82034055	     -1.24006924	    102.76977857	      1.79367101	      3.56172406	    -16.72782092	      0.00000000
      7.51333333	    -11.91585758	     -2.26108629	     -4.75242314	      2.23842927	      0.92693455	      0.99742032	      0.78955208	      4.13841381	     -1.29059317	     21.58795423	      0.37678088	     17.75738826	      2.27079135	      0.00000000	     42.46905249	     -3.86374070	     -0.96651764	    100.06734666	      1.74650467	      4.11208682	    -17.52844865	      0.00000000
      7.52000000	    -12.97440072	     -0.68733742	     -4.53668373	      2.23882179	      0.92983022	      0.99710089	     -0.54911318	      2.39811704	     -1.60431887	     19.67861469	      0.34345662	     15.04571966	      3.08742217	      0.00000000	     45.22818377	     -1.92553992	     -1.07166660	     97.15463585	      1.69566828	      4.84149048	    -17.72414605	      0.00000000
      7.52666667	    -13.19353999	      0.69921254	     -3.96364581	      2.24002912	      0.93375289	      0.99635291	     -3.16070466	      0.94542145	     -1.72034583	     16.93017600	      0.29548731	     10.39215601	      1.33951995	      0.00000000	     46.79334412	      0.04992374	     -0.97741105	     93.86095206	      1.63818265	      5.23702917	    -18.28002010	      0.00000000
      7.53333333	    -13.76517136	      2.05803821	     -3.66874330	      2.24079873	      0.93724313	      0.99594742	     -4.82669776	     -0.54624029	     -2.39400681	     15.19263327	      0.26516147	      6.22350592	      0.96292796	      0.00000000	     48.57975375	      1.65870762	     -1.14758075	     90.35516630	      1.57699515	      5.77480257	    -18.32226573	      0.00000000
      7.54000000	    -14.31233226	      3.27506117	     -3.41358575	      2.24147541	      0.94072841	      0.99556082	     -6.11649924	     -1.96762508	     -3.78648864	     14.19385648	      0.24772953	      2.23579582	      1.27840445	      0.00000000	     50.14206263	      3.01232399	     -1.35192748	     86.59597788	      1.51138493	      6.30642078	    -18.15283778	      0.00000000
      7.54666667	    -14.57757030	      4.28026104	     -3.26603094	      2.24217972	      0.94449720	      0.99544458	     -7.63512205	     -3.04952622	     -4.61313825	     13.22814896	      0.23087475	     -2.41085632	      0.30195117	      0.00000000	     51.17991933	      3.96589712	     -1.63895933	     82.60677280	      1.44176017	      6.74091298	    -17.91464450	      0.00000000
      7.55333333	    -14.87155847	      5.04702167	     -3.10310984	      2.24274796	      0.94806264	      0.99531741	     -8.71792753	     -3.94817338	     -6.07000911	     13.05700927	      0.22788780	     -6.59632573	     -0.21479086	      0.00000000	     52.06169380	      4.63518426	     -1.87841987	     78.42451695	      1.36876604	      7.12804580	    -17.52818701	      0.00000000
      7.56000000	    -15.21476475	      5.55449570	     -3.13865990	      2.24300685	      0.95146714	      0.99557914	     -9.30752786	     -4.63881088	     -7.65548166	     13.67738424	      0.23871539	    -10.24649413	     -0.35881270	      0.00000000	     52.79960673	      4.75566998	     -2.30544528	     74.06952305	      1.29275705	      7.55517504	    -16.72894199	      0.00000000
      7.56666667	    -15.38332535	      5.91949101	     -2.95483577	      2.24335339	      0.95473063	      0.99552991	     -9.93801583	     -5.16824633	     -9.45814797	     14.69423883	      0.25646285	    -13.60093813	     -1.28092595	      0.00000000	     53.14787683	      4.91046095	     -2.66300207	     69.51179750	      1.21320974	      7.90755933	    -15.90723382	      0.00000000
      7.57333333	    -15.53606835	      6.14753751	     -2.63868626	      2.24363579	      0.95766014	      0.99526490	    -10.50860581	     -5.44499991	    -10.79328974	     15.92360866	      0.27791940	    -16.84016209	     -3.62426106	      0.00000000	     53.27081651	      5.07908408	     -2.94335259	     64.73783386	      1.12988835	      8.18134266	    -15.17450901	      0.00000000
      7.58000000	    -15.69717017	      6.27984156	     -2.43463907	      2.24376247	      0.96018881	      0.99515179	    -10.67628316	     -5.79394454	    -12.52121573	     17.99307675	      0.31403843	    -18.91615252	     -4.87817210	      0.00000000	     53.21601402	      4.94680347	     -3.58401595	     59.83874150	      1.04438306	      8.60251580	    -13.74466560	      0.00000000
      7.58666667	    -15.87657426	      6.31991303	     -2.14348548	      2.24383008	      0.96224874	      0.99485409	    -10.68818050	     -6.05558284	    -14.12158715	     20.41686468	      0.35634151	    -20.33425302	     -6.35459235	      0.00000000	     52.97539700	      4.80295461	     -4.34659644	     54.76938189	      0.95590604	      8.97776630	    -12.08167865	      0.00000000
      7.59333333	    -16.07682425	      6.40733137	     -1.78370084	      2.24393400	      0.96379916	      0.99427908	    -10.55492690	     -6.41847097	    -15.64296554	     23.17819440	      0.40453581	    -21.09725472	     -7.95310593	      0.00000000	     52.55232241	      4.79931875	     -5.25881768	     49.55248584	      0.86485403	      9.40858663	    -10.00783386	      0.00000000
